<svg xmlns="http://www.w3.org/2000/svg" xmlns:xlink="http://www.w3.org/1999/xlink" width="96" height="36" viewBox="0 0 96 36"><defs><path id="a" d="M0 .218h95.942v26.52H0z"/><path id="c" d="M.063.066h95.872V5H.063z"/></defs><g fill="none" fill-rule="evenodd"><mask id="b" fill="#fff"><use xlink:href="#a"/></mask><path fill="#DA251D" d="M79.535 15.273l-3.412-8.217-3.718 8.217h7.13zM72.81.219h11.731l9.332 23.39a11.468 11.468 0 0 0 2.068 3.13H82.554a2.633 2.633 0 0 0 .665-1.771c0-.723-.22-1.585-.665-2.58l-1.223-2.838H70.397l-1.656 3.634c-.313.696-.466 1.306-.466 1.824 0 .444.167 1.021.506 1.73h-7.462c1.17-1.305 2.228-2.97 3.172-4.993L73.88 1.79A5.385 5.385 0 0 0 72.812.22zm-13.288 0l.938 5.397c-1.005-.695-2.036-1.047-3.1-1.047l-1.19.02h-9.198c-.671 0-1.144.1-1.41.298-.266.206-.399.564-.399 1.081v.916c0 .682.127 1.127.38 1.32.252.191.837.291 1.742.291h6.57c1.684 0 2.9.08 3.639.245.745.16 1.363.478 1.875.962.998.902 1.51 2.334 1.536 4.29v7.25c-.053 1.823-.638 3.222-1.755 4.197-.606.517-1.264.862-1.956 1.034-.692.18-1.809.266-3.339.266H36.22l-.93-5.306c.737.405 1.443.657 2.12.77.68.113 1.89.165 3.645.165h7.735c.924 0 1.476-.033 1.656-.099.22-.1.365-.24.439-.405.073-.172.106-.47.106-.915v-.835c0-.637-.08-1.061-.246-1.28-.16-.219-.479-.332-.964-.332h-7.515c-1.603 0-2.794-.08-3.592-.232-.791-.16-1.43-.444-1.929-.856-.997-.842-1.51-2.314-1.536-4.41V5.717c.054-1.824.639-3.223 1.756-4.198.605-.53 1.264-.882 1.955-1.048.699-.165 1.81-.252 3.346-.252h17.258zM18.216 15.273l-3.412-8.217-3.717 8.217h7.129zM11.492.219h11.732l9.33 23.39a11.484 11.484 0 0 0 2.069 3.13H21.235a2.634 2.634 0 0 0 .665-1.771c0-.723-.22-1.585-.665-2.58l-1.223-2.838H9.078l-1.656 3.634c-.313.696-.465 1.306-.465 1.824 0 .444.166 1.021.505 1.73H0c1.17-1.305 2.228-2.97 3.172-4.993l9.39-19.955A5.39 5.39 0 0 0 11.493.22z" mask="url(#b)"/><g transform="translate(0 31)"><mask id="d" fill="#fff"><use xlink:href="#c"/></mask><path fill="#DA251D" d="M95.935 3.055a1.022 1.022 0 0 0-.09-.428 1.035 1.035 0 0 0-.244-.33 1.483 1.483 0 0 0-.36-.24 2.321 2.321 0 0 0-.437-.16l-.546-.143a1.916 1.916 0 0 1-.4-.146.573.573 0 0 1-.219-.19.453.453 0 0 1-.067-.255.55.55 0 0 1 .103-.33.644.644 0 0 1 .29-.214 1.21 1.21 0 0 1 .448-.076 1.859 1.859 0 0 1 .711.135c.12.048.251.11.393.187l.29-.406a2.531 2.531 0 0 0-.672-.29 2.894 2.894 0 0 0-.749-.098c-.23.001-.438.03-.626.087a1.495 1.495 0 0 0-.485.244 1.1 1.1 0 0 0-.313.377c-.072.146-.11.308-.11.486 0 .194.043.359.128.495.085.137.21.25.373.342.164.092.361.166.596.225l.485.125c.259.066.45.156.577.273.127.116.19.258.19.425a.611.611 0 0 1-.126.382.787.787 0 0 1-.348.247 1.5 1.5 0 0 1-.53.088 2.38 2.38 0 0 1-.852-.154 3.102 3.102 0 0 1-.4-.186l-.256.44c.227.123.466.215.718.274.25.06.51.09.777.09.244 0 .46-.026.65-.077.19-.05.354-.12.492-.207.14-.087.254-.186.344-.295.09-.11.156-.225.2-.344.043-.12.065-.238.065-.353zm-6.746 1.2v-.496H87.25V2.351h1.488v-.484h-1.494V.614h1.783l.088-.47H86.59v4.11h2.598zm-6.402-.281l-.316-.376a1.478 1.478 0 0 1-.254.143 1.303 1.303 0 0 1-.276.086 1.746 1.746 0 0 1-.325.027c-.166 0-.32-.023-.466-.072a1.126 1.126 0 0 1-.672-.596 1.458 1.458 0 0 1-.095-.254 2.06 2.06 0 0 1-.056-.31 3.84 3.84 0 0 1-.018-.403c0-.246.018-.459.055-.639.037-.18.094-.334.168-.464.108-.192.25-.339.424-.439.174-.1.376-.151.606-.152a1.408 1.408 0 0 1 .821.239l.316-.376a1.542 1.542 0 0 0-.326-.176 1.944 1.944 0 0 0-.386-.11 2.368 2.368 0 0 0-.425-.036c-.24 0-.464.038-.673.114a1.88 1.88 0 0 0-.997.828 2.139 2.139 0 0 0-.224.558 2.721 2.721 0 0 0-.079.665c0 .299.044.571.13.817.085.246.21.464.375.651.175.198.384.35.624.455.241.105.514.159.817.16.235 0 .459-.029.669-.086.21-.056.405-.14.583-.254zm-7.83.28h.66V.143h-.66v4.111zM71.323.143h-.673l-.909 2.47-.073.206-.06.177c-.02.056-.037.112-.055.166a14.595 14.595 0 0 0-.095.31h-.04a1.919 1.919 0 0 0-.03-.137l-.044-.173a4.467 4.467 0 0 0-.117-.378 4.604 4.604 0 0 0-.058-.165l-.89-2.476h-.713l1.548 4.123h.633L71.322.143zM63.46 1.295c0 .12-.021.227-.062.322a.61.61 0 0 1-.355.345c-.072.029-.159.05-.259.064-.1.013-.218.02-.354.02h-.451V.614h.485c.12 0 .229.008.323.021.094.014.175.033.242.057a.66.66 0 0 1 .226.132.615.615 0 0 1 .205.47zm.909 2.96l-.086-.123a7.676 7.676 0 0 1-.134-.188l-.156-.221-.158-.224c-.052-.072-.098-.137-.14-.193a9.884 9.884 0 0 0-.39-.508 1.958 1.958 0 0 0-.404-.382c.194.006.367-.02.52-.076a1.09 1.09 0 0 0 .39-.239 1.07 1.07 0 0 0 .245-.364 1.19 1.19 0 0 0 .023-.808 1.026 1.026 0 0 0-.15-.28 1.258 1.258 0 0 0-.2-.208 1.111 1.111 0 0 0-.26-.16 1.565 1.565 0 0 0-.357-.102 2.839 2.839 0 0 0-.48-.036h-1.3v4.111h.647v-1.82a.68.68 0 0 1 .168.024.46.46 0 0 1 .13.062c.04.027.08.06.12.1a3.944 3.944 0 0 1 .39.44c.056.072.117.156.182.25.065.094.14.205.228.336l.122.18a7.439 7.439 0 0 1 .173.274l.09.154h.787zm-6.84 0v-.496H55.59V2.351h1.488v-.484h-1.494V.614h1.784l.087-.47H54.93v4.11h2.6zm-6.47-1.2c0-.16-.03-.302-.09-.428a1.034 1.034 0 0 0-.243-.33 1.489 1.489 0 0 0-.36-.24 2.309 2.309 0 0 0-.437-.16l-.546-.143a1.916 1.916 0 0 1-.4-.146.57.57 0 0 1-.219-.19.454.454 0 0 1-.067-.255.55.55 0 0 1 .103-.33.643.643 0 0 1 .29-.214c.125-.05.274-.076.448-.076a1.853 1.853 0 0 1 .712.135c.12.048.25.11.392.187l.29-.406a2.529 2.529 0 0 0-.673-.29A2.89 2.89 0 0 0 49.51.07c-.23.001-.438.03-.626.087a1.47 1.47 0 0 0-.484.244c-.137.105-.24.232-.314.377-.073.146-.11.308-.11.486 0 .194.043.359.128.495.085.137.21.25.373.342.164.092.361.166.596.225l.484.125c.26.066.451.156.578.273a.55.55 0 0 1 .19.425.611.611 0 0 1-.126.382.787.787 0 0 1-.348.247 1.5 1.5 0 0 1-.53.088 2.375 2.375 0 0 1-.852-.154 3.08 3.08 0 0 1-.4-.186l-.255.44c.227.123.465.215.717.274.251.06.51.09.777.09a2.58 2.58 0 0 0 .65-.077c.19-.05.354-.12.492-.207.14-.087.254-.186.344-.295.09-.11.156-.225.2-.344a1.02 1.02 0 0 0 .065-.353zM41.722.143h-.754l-.78 1.408a11.4 11.4 0 0 0-.27.525 4.321 4.321 0 0 0-.256-.53L38.894.142h-.795l1.468 2.464v1.647h.673V2.62L41.721.143zm-6.28 0h-3.118V.62h1.205v3.634h.64V.62h1.205l.067-.477zm-7.514 4.111h.66V.143h-.66v4.111zm-3.669-.477h-1.764V.143h-.66v4.111h2.316l.108-.477zm-7.304-1.164h-1.306c.012-.029.031-.08.057-.155.027-.073.057-.163.093-.266l.115-.335.12-.36.112-.338.09-.277.052-.167h.04l.05.17.088.277c.033.106.07.22.11.34l.117.358.112.336.093.264a1.9 1.9 0 0 0 .057.153zm1.279 1.641L16.738.143h-.807l-1.522 4.111h.673l.404-1.163h1.61l.41 1.163h.727zm-7.325-1.289V.143h-.646v2.739c0 .164-.013.301-.041.413a.619.619 0 0 1-.127.267.707.707 0 0 1-.301.199 1.33 1.33 0 0 1-.453.07 1.407 1.407 0 0 1-.458-.067.696.696 0 0 1-.276-.166.388.388 0 0 1-.083-.141 1.046 1.046 0 0 1-.052-.198 3.308 3.308 0 0 1-.034-.46V.142h-.652v2.87c0 .106.002.196.007.27.003.072.01.135.022.186.01.052.026.1.045.143a1.091 1.091 0 0 0 .6.563c.232.096.524.145.874.145.237-.001.44-.024.61-.07a1.49 1.49 0 0 0 .431-.174 1.358 1.358 0 0 0 .418-.399.573.573 0 0 0 .074-.167c.017-.06.028-.134.033-.221.007-.087.01-.195.01-.324zM3.1 2.273c0 .206-.011.386-.033.541a1.8 1.8 0 0 1-.102.402 1.1 1.1 0 0 1-.168.298.872.872 0 0 1-.344.274c-.137.06-.295.09-.477.09-.113 0-.221-.014-.327-.04a1.13 1.13 0 0 1-.29-.118.947.947 0 0 1-.231-.188c-.07-.08-.13-.189-.182-.325a2.41 2.41 0 0 1-.12-.481 4.024 4.024 0 0 1-.041-.608c0-.173.007-.33.025-.468.017-.14.043-.267.079-.38.036-.113.082-.217.138-.31a.8.8 0 0 1 .22-.231c.093-.066.197-.118.315-.155.118-.036.242-.055.374-.055.141.001.265.018.373.052.107.033.2.077.279.132a.942.942 0 0 1 .317.377 1.7 1.7 0 0 1 .108.31c.029.114.05.245.065.39.015.146.022.31.022.493zm1.246 2.261a1.341 1.341 0 0 1-.29.024c-.085 0-.165-.01-.239-.027a1.328 1.328 0 0 1-.205-.066 2.128 2.128 0 0 1-.168-.08l-.174-.09a4.902 4.902 0 0 0-.2-.096 1.927 1.927 0 0 0-.206-.082 1.597 1.597 0 0 0 .324-.233 1.846 1.846 0 0 0 .584-.975c.05-.204.076-.434.076-.69a2.92 2.92 0 0 0-.115-.855A1.966 1.966 0 0 0 3.395.71a1.586 1.586 0 0 0-.353-.327c-.14-.096-.3-.171-.484-.227A2.39 2.39 0 0 0 1.444.12a1.559 1.559 0 0 0-.946.588c-.142.184-.25.4-.324.647-.073.249-.11.522-.11.822 0 .335.043.636.133.904a1.815 1.815 0 0 0 .75.973c.128.08.274.144.437.19.164.045.346.068.55.069.15.03.279.063.39.101.111.038.212.08.305.128.093.046.187.097.282.153.068.04.15.082.244.13.095.046.196.086.301.12.107.034.212.052.316.054.111-.001.198-.008.262-.02a.501.501 0 0 0 .129-.04l.181-.406z" mask="url(#d)"/></g></g></svg>